<?xml version="1.0" encoding="utf-8"?>
<!-- Generator: Adobe Illustrator 24.0.3, SVG Export Plug-In . SVG Version: 6.00 Build 0)  -->
<svg version="1.1" id="Baggrundsfarve" xmlns="http://www.w3.org/2000/svg" xmlns:xlink="http://www.w3.org/1999/xlink" x="0px"
	 y="0px" viewBox="0 0 719.2 1629.6" style="enable-background:new 0 0 719.2 1629.6;" xml:space="preserve">
<style type="text/css">
	.st0{fill:#DD9C38;stroke:#000000;stroke-width:0.25;stroke-miterlimit:10;}
	.st1{fill:#58595B;stroke:#000000;stroke-width:0.25;stroke-miterlimit:10;}
	.st2{fill:#FEC880;stroke:#000000;stroke-width:0.25;stroke-miterlimit:10;}
	.st3{fill:#FFFFFF;stroke:#000000;stroke-miterlimit:10;}
	.st4{font-family:'CourierNewPS-BoldMT';}
	.st5{font-size:12px;}
	.st6{font-family:'CourierNewPSMT';}
	.st7{font-size:8.6582px;}
	.st8{clip-path:url(#SVGID_2_);fill:#29B7DD;}
	.st9{clip-path:url(#SVGID_2_);}
	.st10{fill:#588426;}
	.st11{stroke:#000000;stroke-width:0.5;stroke-miterlimit:10;}
	.st12{fill:#E6E7E8;}
	.st13{font-family:'MyriadPro-Regular';}
	.st14{font-size:39.4368px;}
	.st15{fill:#DD9C38;}
	.st16{fill:#1D170E;}
	.st17{font-size:30.1582px;}
	.st18{fill:#183F1D;}
	.st19{fill:#D1D3D4;stroke:#D1D3D4;stroke-width:0.25;stroke-miterlimit:10;}
	.st20{fill:#E6E7E8;stroke:#D1D3D4;stroke-width:0.25;stroke-miterlimit:10;}
	.st21{font-size:24.1406px;}
	.st22{stroke:#BCBEC0;stroke-width:0.5;stroke-miterlimit:10;}
	.st23{fill:#D1D3D4;}
	.st24{fill:#E6E7E8;stroke:#A7A9AC;stroke-width:0.25;stroke-miterlimit:10;}
	.st25{fill:#29B7DD;}
	.st26{fill:#BE1E2D;}
	.st27{fill:#58595B;}
	.st28{fill:#FFFFFF;stroke:#D1D3D4;stroke-width:0.25;stroke-miterlimit:10;}
	.st29{fill:#29B7DD;stroke:#000000;stroke-miterlimit:10;}
	.st30{fill:#741015;stroke:#D1D3D4;stroke-miterlimit:10;}
	.st31{font-size:12.3105px;}
	.st32{fill:#FFFFFF;}
	.st33{font-size:8px;}
	.st34{fill:#775312;}
	.st35{font-size:4.9569px;}
	.st36{font-size:5.783px;}
	.st37{font-size:8.6745px;}
	.st38{font-size:7.4353px;}
	.st39{font-size:36px;}
	.st40{fill:#100E0A;}
	.st41{fill:#FEC880;}
	.st42{fill:#865E1A;}
	.st43{fill:#588426;stroke:#D1D3D4;stroke-miterlimit:10;}
	.st44{fill:#588426;stroke:#D1D3D4;stroke-width:0.75;stroke-miterlimit:10;}
	.st45{fill:#808285;}
	.st46{fill:#808285;stroke:#808285;stroke-miterlimit:10;}
	.st47{fill:#E6E6E5;}
	.st48{fill:#CCCCCC;}
	.st49{fill:#989898;}
</style>
<ellipse class="st0" cx="368.5" cy="124.9" rx="28.7" ry="30.6"/>
<ellipse class="st1" cx="368.5" cy="158" rx="9.1" ry="1.2"/>
<ellipse class="st1" cx="368.5" cy="160.5" rx="9.1" ry="1.2"/>
<ellipse class="st1" cx="368.5" cy="162.9" rx="9.1" ry="1.2"/>
<ellipse class="st1" cx="368.5" cy="165.4" rx="8.7" ry="1.2"/>
<ellipse class="st1" cx="368.5" cy="167.9" rx="7.4" ry="1.2"/>
<ellipse class="st1" cx="368.5" cy="170.4" rx="6.2" ry="1.2"/>
<ellipse class="st2" cx="368.5" cy="139.6" rx="3.4" ry="14.7"/>
<ellipse class="st1" cx="368.5" cy="155.5" rx="9.1" ry="1.2"/>
<line class="st3" x1="404.8" y1="107.1" x2="421.4" y2="100.7"/>
<line class="st3" x1="397.6" y1="94.6" x2="424" y2="67.8"/>
<line class="st3" x1="385" y1="86.3" x2="393.1" y2="70.5"/>
<line class="st3" x1="370.2" y1="83" x2="370.2" y2="49.2"/>
<line class="st3" x1="355.3" y1="85.1" x2="349.4" y2="68.3"/>
<line class="st3" x1="342" y1="92.4" x2="319.3" y2="65"/>
<line class="st3" x1="332.2" y1="103.9" x2="316.6" y2="95.3"/>
<text transform="matrix(1 0 0 1 271.4038 190.7993)" class="st4 st5">Det hele starter med en idé! </text>
<text transform="matrix(0.9247 0 0 1 310.7375 205.7445)"><tspan x="0" y="0" class="st6 st7">Brug tid på at overveje </tspan><tspan x="0" y="10.4" class="st6 st7">hvad dine drømme er og </tspan><tspan x="0" y="20.8" class="st6 st7">hvad netop du har lyst </tspan><tspan x="0" y="31.2" class="st6 st7">til at opleve.</tspan></text>
<g>
	<defs>
		<ellipse id="SVGID_1_" cx="133.1" cy="360" rx="50.8" ry="49.8"/>
	</defs>
	<clipPath id="SVGID_2_">
		<use xlink:href="#SVGID_1_"  style="overflow:visible;"/>
	</clipPath>
	<rect x="11.9" y="287.7" class="st8" width="277.6" height="163"/>
	<g class="st9">
		<polygon class="st10" points="90.3,364.3 90.3,367.2 88.2,370 87.3,372.5 87.3,375.6 88.8,379.5 91.3,381.9 94,385 96.5,386.5 
			97,389.5 97,393.4 97.4,396.6 97.9,400.8 98.4,405.6 99.9,408.6 102.5,415.5 104.4,416.7 105.4,416.7 106.7,417.9 109.2,417.9 
			106.5,414.5 106.1,412.6 106.3,411.1 106.1,408.9 106.6,405.7 109.2,403.7 112.6,397.8 114.6,394.8 114.6,392.4 119.4,390.1 
			120.9,383.6 122.5,379.6 123.7,376.5 121.6,374.1 117.3,372.5 113,371.1 111.8,369.7 110.9,367.1 108.4,365.2 105.9,364.3 
			103.7,363 102.7,361.2 99.6,361.2 97.7,360.4 96.3,360 94.8,360 91.5,362.2 		"/>
		<path class="st10" d="M87.3,312.9l-5.9-1.2l-6.1,0.6l-12.1-1.7l-5.5,2.3v2.1h-4.3l2,1.2l-5.5,2.3v2.8l-1.9,1.1l8.7-2.5l3.7-0.9
			l3.9,0.5l2,2.8l-0.2,2.8l-0.5,4.6l-3,5.1l-0.7,4.7c0,0,2,2.1,2,1.4s1.1,8.1,1.1,8.1l1.6-4.9l2.3,4l0.7,3.9l4.1,4.7h2.7l2.5,1.2
			l5.5,3.5l3,2.3l1.4-1.2l-2.9-3.3l-1.1-2.6l-2.7-3.9l-1.1-4l0.7-3.7l3.6-0.2l3.4,1.6l1.2,2.3l1.1-4.4l1.6-3l2.3-1.8l3-4.2l4.1-1.9
			l3.4-2.3l2.7,0.9l-1.4-3.3l6.2-2.6l2.1,5.3v-7.7l-3-4.2l-6.6-2.3l-3.7,3.5l-4.1,0.9l-4.1-0.7l2-3.2l5.2-2.6l-1.4-3.3l-7.3,2.1
			L87.3,312.9z"/>
		<path class="st10" d="M146.1,339.9h5.4l3.2-1.6h4.3l0.9,2.8l3,1.4l3,1.4l1.1-2.8l6.8,2.8h2.3l2.3,7l5.5,9.1l5.4,0.4v3.6l-2.1,3.3
			l-4.1,4.2l-1.8,3.9l1.2,4.7l-0.7,2.3c0,0,0,2.3-1.2,3.3c-1.2,1.1-2,2.1-2.7,2.3c-0.7,0.2-0.2,2.6-0.7,4c-0.5,1.4,0.7-0.4-0.5,1.4
			c-1.2,1.8-1.6,1.9-2.7,3c-1.1,1.1-0.7,1.2-1.8,2.1c-1.1,0.9,0,1.1-2.1,1.2s-0.4,0.4-2.1,0.2c-1.8-0.2-2.3-0.4-3-1.1
			c-0.7-0.7-1.2-2.8-1.2-2.8s-0.2-2.3-0.5-3.3c-0.4-1.1-0.5-3.8-0.5-3.8s-0.5-4-0.5-4.7s0-3.5,0-3.5c0.7-2.1,1.2-3.9,1.2-3.9
			c-1.1-2.6-1.1-3.2-2.5-4.4c-1.4-1.2-3.4-4.7-3.4-4.7c-4.5-1.2-2.9-1.4-6.1-1.1c-3.2,0.4-3.2,0.4-3.2,0.4s-0.2-0.2-3-1.9
			c-2.9-1.8-5.4-3.4-5.5-5.1s0.4-3.8,0-5.2s-0.4-4.2,0-5.8c0.4-1.6,3.3-4.6,3.3-4.6s0.5-1.1,0.7-1.6s1.4-4.6,1.4-4.6L146.1,339.9z"
			/>
		<path class="st10" d="M150,321.7v4.1l2.1,5.3l-5,2.4l0.2,4.8l6.6,1.6c-0.2-4-0.2-4-0.2-4l2.5-2l6.2-1.2l-1,5.6l5.3-5.2
			c0,0,0.5,0.2,1.6,4.1l1.1,3.9l5.4-2.8c1.4,5.6,3.7,5.6,3.7,5.6s-1.5,7.8,2.3,7c3.8-0.8,2.2-2.9,3.8-0.8s0.4,0,1.7,2
			c1.2,2-0.8,1.2,1.2,2c2.1,0.8,0.9-0.8,4.2,0c3.3,0.8,3.3,0.8,3.3,0.8s-1.2-0.4,0-2c1.2-1.6-5.4-6.1-5.4-6.1s0.1-3.6,2.1-0.8
			c2,2.8,5.8,3.2,7.8,3.6c2.1,0.4-0.8-1.6,2.1,0.4s2.9,2,2.9,2s0.4,0.4,2.1,2.8c1.7,2.4,0.8,0.7,2.9,5c2.1,4.3,2.1,4.3,2.1,4.3
			s3.3,4.5,4.1-0.6c0.8-5.1,0.8-5.1,0.8-5.1v-2.8c0,0,2.9-2.4,3.7-1.6c0.8,0.8,0.8,0.8,0.8,0.8s-2.5-0.4,0,0c2.5,0.4,0-0.8,2.5,0.4
			c2.5,1.2,0-1.6,2.5,1.2s2.5,2.8,2.5,2.8s0.8-0.4,2.1,1s1.2,1.4,1.2,1.4l2.5,1.9c2.5-3.9,4.1-1.9,2.5-3.9c-1.7-2-1.7-2-1.7-2
			l-1.7-4.5l4-2.8c4.7-0.4,6.8-1.6,6.8-1.6l-1.7-4.9l-2.5-3.6l5.8-3.2c0,0,2.9-3.7,2.9-5.3c0-1.6,0-4.5,0-4.5l-2.5-4.1
			c0,0-2.5-3.6-0.8-4.1c1.7-0.4-1.7-0.8,1.7-0.4c3.3,0.4,0.8-0.4,3.3,0.4c2.5,0.8-0.4-0.4,2.5,0.8c2.9,1.2,0,2,2.9,1.2
			c2.9-0.8,3.3-1.6,4.1-2.6c0.8-1,0.8-1,0.8-1s1.2-1.6,0-2.8c-1.2-1.2-2.1-2-4.1-2c-2.1,0-2.1-2.4-5.8-2.2c-3.7,0.2-4.5,0.6-6.2,0
			c-1.7-0.6-2.5,1.4-5.8,0c-3.3-1.4-4.5-1.4-6.2-1.9s-1.7-0.4-1.7-0.4s-3.3,0.4-5,0s-2.1,1.2-4.5,0c-2.5-1.2-3.7-2-5-2
			s-3.7,0.8-5.4,0c-1.7-0.8,0.8-1.2-1.7-0.8c-2.5,0.4-0.3-1.9-5.3-0.2s-5.4,1-7.9,2.6c-2.5,1.6-2.5,1.6-2.5,1.6s1.7-0.7-2,1.1
			c-3.7,1.8-1.3,1.8-3.7,1.8c-2.5,0-2.9-1.9-4.5-1.8c-1.7,0.2-2.1,0.6-3.7,0c-1.7-0.6,1.2-0.6-1.7-0.6s4.5-2-2.9,0
			c-7.4,2-7.4,2-7.4,2s-1.7-3.6-4.1-1.4c-2.5,2.2-1.2,0.2-2.5,2.2c-1.2,2,0.4-1.2-1.2,2c-1.7,3.2,0,0-1.7,3.2
			c-1.7,3.2-1.7,3.2-1.7,3.2L150,321.7z"/>
	</g>
</g>
<g>
	<path class="st10" d="M654.5,401.1h-98.5c-0.9,0-1.6-0.7-1.6-1.6v-60.8c0-0.9,0.7-1.6,1.6-1.6h98.5c0.9,0,1.6,0.7,1.6,1.6v60.8
		C656.1,400.4,655.4,401.1,654.5,401.1z"/>
	
		<rect x="563" y="329.5" transform="matrix(-1 -1.224647e-16 1.224647e-16 -1 1129.4811 670.9974)" class="st11" width="3.6" height="11.9"/>
	
		<rect x="573.1" y="329.5" transform="matrix(-1 -1.224647e-16 1.224647e-16 -1 1149.7552 670.9974)" class="st11" width="3.6" height="11.9"/>
	
		<rect x="583.2" y="329.5" transform="matrix(-1 -1.224647e-16 1.224647e-16 -1 1170.0295 670.9974)" class="st11" width="3.6" height="11.9"/>
	
		<rect x="593.4" y="329.5" transform="matrix(-1 -1.224647e-16 1.224647e-16 -1 1190.3038 670.9974)" class="st11" width="3.6" height="11.9"/>
	
		<rect x="603.5" y="329.5" transform="matrix(-1 -1.224647e-16 1.224647e-16 -1 1210.578 670.9974)" class="st11" width="3.6" height="11.9"/>
	
		<rect x="613.6" y="329.5" transform="matrix(-1 -1.224647e-16 1.224647e-16 -1 1230.8523 670.9974)" class="st11" width="3.6" height="11.9"/>
	
		<rect x="623.8" y="329.5" transform="matrix(-1 -1.224647e-16 1.224647e-16 -1 1251.1266 670.9974)" class="st11" width="3.6" height="11.9"/>
	
		<rect x="633.9" y="329.5" transform="matrix(-1 -1.224647e-16 1.224647e-16 -1 1271.4008 670.9974)" class="st11" width="3.6" height="11.9"/>
	
		<rect x="644.1" y="329.5" transform="matrix(-1 -1.224647e-16 1.224647e-16 -1 1291.675 670.9974)" class="st11" width="3.6" height="11.9"/>
	<text transform="matrix(1.0303 0 0 1 563.4739 382.9742)" class="st12 st13 st14">2020</text>
</g>
<g>
	<path class="st15" d="M379.7,324.9c-0.9,0.4-2,0.6-3.2,0.6c-2.6,0-4.6-1.1-5.8-2.7c-1.2,1.6-3.2,2.7-5.8,2.7c-2.3,0-4-0.8-5.2-2.1
		c-0.7,2.9-2.8,5.3-6.5,5.6c-0.1,0.6-0.1,1.3-0.1,2c0,9.8,7.2,17.8,16.2,17.8s16.2-8,16.2-17.8c0-0.2,0-0.3,0-0.5
		C382.1,329.9,380.2,327.6,379.7,324.9z"/>
	<path class="st15" d="M383.4,401.1H355c-11,0-18.5-13-14.6-25.1l6.3-19.6c2.3-7.2,8.1-12,14.6-12h15.8c6.5,0,12.3,4.8,14.6,12
		l6.3,19.6C401.9,388.1,394.3,401.1,383.4,401.1z"/>
	<rect x="357.7" y="343.6" class="st16" width="23" height="1.7"/>
	<text transform="matrix(1.1185 0 0 1 360.9869 379.0772)" class="st13 st17">$</text>
</g>
<text transform="matrix(1 0 0 1 74.1453 426.9814)" class="st4 st5">Hvor skal du hen?</text>
<text transform="matrix(0.9247 0 0 1 90.5511 441.9265)"><tspan x="0" y="0" class="st6 st7">Undersøg hvilke </tspan><tspan x="0" y="10.4" class="st6 st7">destinationer der </tspan><tspan x="0" y="20.8" class="st6 st7">bedst opfylder dine </tspan><tspan x="0" y="31.2" class="st6 st7">rejsedrømme. </tspan></text>
<text transform="matrix(1 0 0 1 554.4637 425.9965)" class="st4 st5">Hvor lang tid?</text>
<text transform="matrix(0.9247 0 0 1 549.1863 441.9264)"><tspan x="0" y="0" class="st6 st7">Planlæg din rejse så du </tspan><tspan x="0" y="10.4" class="st6 st7">får set hvad du vil men </tspan><tspan x="0" y="20.8" class="st6 st7">også har frihed. </tspan></text>
<text transform="matrix(1 0 0 1 286.8453 426.9816)" class="st4 st5">Hvor meget må det koste?</text>
<text transform="matrix(0.9247 0 0 1 311.4122 441.9263)"><tspan x="0" y="0" class="st6 st7">Læg dit budget ud fra </tspan><tspan x="0" y="10.4" class="st6 st7">destination, oplevelser </tspan><tspan x="0" y="20.8" class="st6 st7">og rejsetid. Budget hænger </tspan><tspan x="0" y="31.2" class="st6 st7">uløseligt sammen med din </tspan><tspan x="0" y="41.6" class="st6 st7">destination og tiden. </tspan></text>
<rect y="587" class="st18" width="719.2" height="279.7"/>
<rect x="251.6" y="572.1" class="st15" width="231.9" height="37.5"/>
<text transform="matrix(1 0 0 1 276.7589 593.9355)" class="st4 st5">Få styr på det praktiske</text>
<g>
	<path class="st19" d="M153.8,693.4l-64-19.7c-1.1-0.4-1.8-1.6-1.4-2.7l8.3-26.9c0.4-1.1,1.6-1.8,2.7-1.4l64,19.7
		c1.1,0.4,1.8,1.6,1.4,2.7l-8.3,26.9C156.1,693.1,154.9,693.8,153.8,693.4z"/>
	<path class="st20" d="M160.1,685.2H93.1c-1.2,0-2.2-1-2.2-2.2v-28.2c0-1.2,1-2.2,2.2-2.2h66.9c1.2,0,2.2,1,2.2,2.2v28.2
		C162.2,684.3,161.3,685.2,160.1,685.2z"/>
	<g id="Fly_2_">
		<rect x="105.2" y="664.9" width="23.5" height="6.2"/>
		<ellipse cx="128.8" cy="668" rx="3.5" ry="3.1"/>
		<polygon points="123.1,665.1 118,668.7 109.1,657 112.4,657.2 		"/>
		<polygon points="108.3,665.8 105.2,668 99.9,661 101.9,661.1 		"/>
		<polygon points="123.1,671 118,667.3 109.1,679 112.4,678.8 		"/>
		<polygon points="108.3,670.2 105.2,668 99.9,675 101.9,674.9 		"/>
	</g>
	<rect x="148.9" y="656.7" width="1" height="4.1"/>
	<rect x="148.9" y="661.8" width="1" height="4.1"/>
	<rect x="148.9" y="666.9" width="1" height="4.1"/>
	<rect x="148.9" y="672" width="1" height="4.1"/>
	<rect x="148.9" y="677.2" width="1" height="4.1"/>
</g>
<g>
	<path class="st20" d="M403,655c-5.8,0-8.7-4.2-8.9-8.6h-53.8c-0.1,4.3-3,8.4-8.5,8.6v27.4c5.8,0.2,8.7,4.7,8.5,9.1h53.8
		c-0.1-4.5,2.8-9.2,8.9-9.2c0.1,0,0.2,0,0.3,0V655C403.1,655,403,655,403,655z"/>
	<text transform="matrix(1 0 0 1 344.3608 670.1027)" class="st13 st21">VISA</text>
	<rect x="344.4" y="674.8" width="46.3" height="1.4"/>
	<rect x="346" y="680" width="9.4" height="1.4"/>
	<rect x="365.1" y="680" width="23.7" height="1.4"/>
</g>
<g>
	<polygon class="st22" points="546.1,692.2 558.3,683.6 558.9,684.3 548.9,691.4 	"/>
	<path class="st23" d="M557.2,679.4L557.2,679.4c0.8-0.5,1.8-0.4,2.4,0.4l3.2,4.6c0.5,0.8,0.4,1.8-0.4,2.4l0,0
		c-0.8,0.5-1.8,0.4-2.4-0.4l-3.2-4.6C556.2,681.1,556.4,680,557.2,679.4z"/>
	<path class="st24" d="M556,675l33.1-23.5c0.4-0.3,0.9-0.2,1.2,0.2l9.2,13c0.3,0.4,0.2,0.9-0.2,1.2l-33.1,23.5
		c-0.4,0.3-0.9,0.2-1.2-0.2l-9.2-13C555.5,675.8,555.6,675.2,556,675z"/>
	<path class="st25" d="M556,675l11-7.8c0.4-0.3,0.9-0.2,1.2,0.2l9.2,13c0.3,0.4,0.2,0.9-0.2,1.2l-11,7.8c-0.4,0.3-0.9,0.2-1.2-0.2
		l-9.2-13C555.5,675.8,555.6,675.2,556,675z"/>
	
		<rect x="572.3" y="664.9" transform="matrix(-0.8161 0.5779 -0.5779 -0.8161 1429.9907 892.4285)" class="st22" width="1.4" height="17.7"/>
	
		<rect x="570" y="661.5" transform="matrix(-0.8161 0.5779 -0.5779 -0.8161 1452.972 861.9785)" class="st22" width="38.6" height="1.4"/>
	
		<rect x="603.8" y="642.6" transform="matrix(-0.8161 0.5779 -0.5779 -0.8161 1474.3396 833.6668)" class="st22" width="1.4" height="17.7"/>
	<rect x="591.9" y="666" transform="matrix(-0.8161 0.5779 -0.5779 -0.8161 1462.0104 871.1097)" width="1" height="4.3"/>
	<rect x="583.6" y="671.9" transform="matrix(-0.8161 0.5779 -0.5779 -0.8161 1450.4082 886.4825)" width="1" height="4.3"/>
	<rect x="587.8" y="668.9" transform="matrix(-0.8161 0.5779 -0.5779 -0.8161 1456.2094 878.7961)" width="1" height="4.3"/>
</g>
<g id="DO">
	<rect x="87.4" y="773.7" class="st10" width="5.1" height="22.9"/>
	<path class="st12" d="M117,779.1H97.5c-2,0-3.7-1.7-3.7-3.7l0,0c0-2,1.7-3.7,3.7-3.7H117c2,0,3.7,1.7,3.7,3.7l0,0
		C120.7,777.4,119,779.1,117,779.1z"/>
	<path class="st12" d="M116.4,798.2H96.8c-2,0-3.7-1.7-3.7-3.7l0,0c0-2,1.7-3.7,3.7-3.7h19.5c2,0,3.7,1.7,3.7,3.7l0,0
		C120.1,796.6,118.4,798.2,116.4,798.2z"/>
	<path class="st12" d="M116.4,791.7H96.8c-2,0-3.7-1.7-3.7-3.7v0c0-2,1.7-3.7,3.7-3.7h19.5c2,0,3.7,1.7,3.7,3.7v0
		C120.1,790,118.4,791.7,116.4,791.7z"/>
	<path class="st12" d="M116.4,785.1H97.1c-2,0-3.7-1.7-3.7-3.7l0,0c0-2,1.7-3.7,3.7-3.7h19.2c2,0,3.7,1.7,3.7,3.7l0,0
		C120.1,783.5,118.4,785.1,116.4,785.1z"/>
	<rect x="93.1" y="773.2" class="st12" width="6.9" height="22.1"/>
	<path class="st12" d="M93.1,773.2l10.5-11.1h6.9c0,0-0.7,12-3.7,12.7"/>
	<path class="st12" d="M107.6,764.8L107.6,764.8c1.6,0,2.9-1.3,2.9-2.9v-3.4c0-1.6-1.3-2.9-2.9-2.9l0,0c-1.6,0-2.9,1.3-2.9,2.9v3.4
		C104.6,763.5,105.9,764.8,107.6,764.8z"/>
	<path class="st12" d="M103.6,762.1c0.2-0.3,0.5-0.7,0.7-1.2c0.2-0.5,0.3-0.9,0.4-1.3c0.4,1.2,0.9,2.3,1.3,3.5L103.6,762.1z"/>
</g>
<g id="DON_x27_T">
	
		<rect x="160.6" y="773.3" transform="matrix(-1 -8.977409e-11 8.977409e-11 -1 326.4348 1569.5515)" class="st26" width="5.1" height="22.9"/>
	<path class="st12" d="M136.2,790.8h19.5c2,0,3.7,1.7,3.7,3.7l0,0c0,2-1.7,3.7-3.7,3.7h-19.5c-2,0-3.7-1.7-3.7-3.7l0,0
		C132.5,792.5,134.2,790.8,136.2,790.8z"/>
	<path class="st12" d="M136.8,771.7h19.5c2,0,3.7,1.7,3.7,3.7l0,0c0,2-1.7,3.7-3.7,3.7h-19.5c-2,0-3.7-1.7-3.7-3.7l0,0
		C133.1,773.3,134.8,771.7,136.8,771.7z"/>
	<path class="st12" d="M136.8,778.2h19.5c2,0,3.7,1.7,3.7,3.7l0,0c0,2-1.7,3.7-3.7,3.7h-19.5c-2,0-3.7-1.7-3.7-3.7l0,0
		C133.1,779.9,134.8,778.2,136.8,778.2z"/>
	<path class="st12" d="M136.8,784.8h19.2c2,0,3.7,1.7,3.7,3.7l0,0c0,2-1.7,3.7-3.7,3.7h-19.2c-2,0-3.7-1.7-3.7-3.7l0,0
		C133.1,786.4,134.8,784.8,136.8,784.8z"/>
	
		<rect x="153.2" y="774.6" transform="matrix(-1 -8.975944e-11 8.975944e-11 -1 313.2196 1571.3976)" class="st12" width="6.9" height="22.1"/>
	<path class="st12" d="M160,796.8l-10.5,11.1h-6.9c0,0,0.7-12,3.7-12.7"/>
	<path class="st12" d="M145.6,805.1L145.6,805.1c-1.6,0-2.9,1.3-2.9,2.9v3.4c0,1.6,1.3,2.9,2.9,2.9h0c1.6,0,2.9-1.3,2.9-2.9V808
		C148.5,806.4,147.2,805.1,145.6,805.1z"/>
	<path class="st12" d="M149.6,807.8c-0.2,0.3-0.5,0.7-0.7,1.2c-0.2,0.5-0.3,0.9-0.4,1.3c-0.4-1.2-0.9-2.3-1.3-3.5L149.6,807.8z"/>
</g>
<g>
	<path class="st20" d="M388,813.7h-42.6c-1.7,0-3.1-1.4-3.1-3.1v-50.7c0-1.7,1.4-3.1,3.1-3.1H388c1.7,0,3.1,1.4,3.1,3.1v50.7
		C391.1,812.3,389.7,813.7,388,813.7z"/>
	<ellipse cx="367" cy="755.3" rx="4.9" ry="4.4"/>
	<ellipse class="st27" cx="367" cy="755.3" rx="3.3" ry="2.9"/>
	<path class="st28" d="M386.2,811.5h-38.8c-1.7,0-3.1-1.4-3.1-3.1v-46.3c0-1.7,1.4-3.1,3.1-3.1h38.8c1.7,0,3.1,1.4,3.1,3.1v46.3
		C389.3,810.1,387.9,811.5,386.2,811.5z"/>
	<path d="M378.6,760.2h-23.1c-1.3,0-2.3-1-2.3-2.3l0,0c0-1.3,1-2.3,2.3-2.3h23.1c1.3,0,2.3,1,2.3,2.3l0,0
		C380.9,759.2,379.8,760.2,378.6,760.2z"/>
	<rect x="351" y="767.6" width="32" height="1.1"/>
	<rect x="350.9" y="775" width="32" height="1.1"/>
	<rect x="350.9" y="782.4" width="32" height="1.1"/>
	<rect x="350.8" y="789.8" width="32" height="1.1"/>
	<rect x="350.7" y="797.2" width="32" height="1.1"/>
	<rect x="350.6" y="804.6" width="32" height="1.1"/>
	<path class="st29" d="M365.1,788c-0.1,0-0.3,0-0.4-0.1c-0.1,0.1-0.2,0.2-0.3,0.3c-0.9,1.5-2.6,2.6-5,2.6c-1.6,0-2.9-0.5-3.9-1.3
		c-0.9-0.6-1.6-1.5-2.1-2.4c0,0,0,0-0.1,0c-0.9,1.8-2.6,3.1-5.3,3.1c-2.8,0-4.5-1.4-5.4-3.3c-0.1,0-0.3,0-0.4,0
		c-0.2,0.3-0.3,0.5-0.5,0.8c-0.7,2.1-2.6,3.8-5.6,3.8c-2.5,0-4.1-1.1-5.1-2.7c-0.1,0-0.1,0-0.2,0.1c-0.1,1-0.1,1.9-0.1,2.9
		c0,15.3,7.7,27.6,17.2,27.6s17.2-12.4,17.2-27.6C365.3,790.5,365.3,789.2,365.1,788z"/>
	<g id="Fly_3_">
		<rect x="341.8" y="799.4" width="14.6" height="4.5"/>
		<ellipse cx="356.3" cy="801.6" rx="2.2" ry="2.2"/>
		<polygon points="352.8,799.4 349.6,802.1 344.2,793.6 346.2,793.7 		"/>
		<polygon points="343.7,800 341.7,801.6 338.5,796.5 339.7,796.6 		"/>
		<polygon points="352.8,803.8 349.6,801.1 344.2,809.6 346.2,809.5 		"/>
		<polygon points="343.7,803.2 341.7,801.6 338.5,806.7 339.7,806.6 		"/>
	</g>
</g>
<g>
	<path class="st30" d="M595.7,815.3h-39.1v-56.8h39.1c1.7,0,3,1.3,3,3v50.8C598.7,814,597.3,815.3,595.7,815.3z"/>
	<rect x="563.4" y="790.9" class="st15" width="28.4" height="1.4"/>
	<text transform="matrix(0.9962 0 0 1 567.0296 781.1896)" class="st15 st13 st31">PAS</text>
	<rect x="567.6" y="800.5" class="st15" width="20" height="1.4"/>
	<rect x="565" y="795.6" class="st15" width="25.3" height="1.4"/>
</g>
<text transform="matrix(1 0 0 1 96.5707 707.9875)" class="st32 st4 st33">Flybilletter</text>
<text transform="matrix(1 0 0 1 355.3377 707.9878)" class="st32 st4 st33">Visum</text>
<text transform="matrix(1 0 0 1 90.9474 834.684)" class="st32 st4 st33">Do’s and Don’ts</text>
<text transform="matrix(1 0 0 1 338.464 834.6838)" class="st32 st4 st33">Rejseforsikring</text>
<text transform="matrix(1 0 0 1 560.8698 713.0361)" class="st32 st4 st33">Vacciner</text>
<text transform="matrix(1 0 0 1 569.7404 834.684)" class="st32 st4 st33">Pas</text>
<rect x="175.1" y="1026.7" class="st34" width="53.3" height="4.7"/>
<rect x="223.2" y="1026.7" class="st34" width="5.2" height="16.4"/>
<polygon points="254.7,999.6 198.1,963.5 194.8,967.9 251.4,1004 "/>
<polygon points="145.4,1004.9 201.3,967.8 198,963.5 142.1,1000.5 "/>
<path class="st15" d="M228.4,1026.7h-43.6v-6.1c0-1.1,0.9-2,2-2h34.2c4.1,0,7.4,3.3,7.4,7.4V1026.7z"/>
<path class="st15" d="M184.5,1026.7h-7.8v-3.6c0-2,1.6-3.6,3.6-3.6h0.7c2,0,3.6,1.6,3.6,3.6V1026.7z"/>
<rect x="170.9" y="1007.8" class="st34" width="5.5" height="35.3"/>
<rect x="117.9" y="1029.2" transform="matrix(6.123234e-17 -1 1 6.123234e-17 -882.3842 1181.7684)" width="63.6" height="5.8"/>
<rect x="215.5" y="1028.2" transform="matrix(6.123234e-17 -1 1 6.123234e-17 -783.7465 1278.3495)" width="63.6" height="5.8"/>
<rect x="146.8" y="1058.5" transform="matrix(-1 -1.224647e-16 1.224647e-16 -1 396.9936 2122.3931)" width="103.4" height="5.4"/>
<text transform="matrix(1 0 0 1 187.0069 1008.066)" class="st13 st35">z</text>
<text transform="matrix(1 0 0 1 192.6807 1001.3941)" class="st13 st36">z</text>
<text transform="matrix(1 0 0 1 204.4761 988.1705)" class="st13 st37">z</text>
<text transform="matrix(1 0 0 1 198.4966 995.2066)" class="st13 st38">z</text>
<text transform="matrix(1 0 0 1 139.8978 1093.8905)" class="st4 st5">Book overnatning </text>
<text transform="matrix(1 0 0 1 468.4789 1093.8905)" class="st4 st5">Undersøg transport</text>
<text transform="matrix(1 0 0 1 348.6992 1301.2384)" class="st4 st5">Pak</text>
<text transform="matrix(1 0 0 1 201.7893 1592.8867)" class="st4 st39">Flyv - God tur!</text>
<g>
	<path class="st40" d="M574.7,1066.7L574.7,1066.7c-3.9,0-7.1-3.2-7.1-7.1v-3.1c0-3.9,3.2-7.1,7.1-7.1l0,0c3.9,0,7.1,3.2,7.1,7.1
		v3.1C581.9,1063.5,578.7,1066.7,574.7,1066.7z"/>
	<path class="st40" d="M499,1065.9L499,1065.9c-3.9,0-7.1-3.2-7.1-7.1v-3.1c0-3.9,3.2-7.1,7.1-7.1h0c3.9,0,7.1,3.2,7.1,7.1v3.1
		C506.1,1062.7,502.9,1065.9,499,1065.9z"/>
	<path class="st15" d="M566.8,1028.3h-59.9c-5.3,0-8.7-4.9-7.8-10.6l2.5-15.1c0.8-4.8,5.1-8.5,9.6-8.5h51.3c4.5,0,8.8,3.7,9.6,8.5
		l2.5,15.1C575.6,1023.4,572.1,1028.3,566.8,1028.3z"/>
	<path class="st10" d="M568.4,1049.6h-63.8c-7,0-12.7-5.7-12.7-12.7v-4.8c0-7,5.7-12.7,12.7-12.7h63.8c7,0,12.7,5.7,12.7,12.7v4.8
		C581.1,1043.9,575.4,1049.6,568.4,1049.6z"/>
	<path class="st15" d="M579.7,1054.6H494c-2.9,0-5.2-2.3-5.2-5.2l0,0c0-2.9,2.3-5.2,5.2-5.2h85.7c2.9,0,5.2,2.3,5.2,5.2l0,0
		C584.9,1052.3,582.6,1054.6,579.7,1054.6z"/>
	<path class="st41" d="M570.3,1017.2l-2.5-15.1c-0.4-2.6-2.8-4.8-5.2-4.8h-51.3c-2.4,0-4.8,2.2-5.2,4.8l-2.5,15.1c0,0,0,0,0,0
		L570.3,1017.2C570.3,1017.3,570.3,1017.3,570.3,1017.2z"/>
	<circle class="st32" cx="570.9" cy="1029.9" r="6.8"/>
	<circle class="st32" cx="503.5" cy="1029.9" r="6.8"/>
	<path class="st32" d="M555.3,1041h-36.2c-2,0-3.6-1.6-3.6-3.6l0,0c0-2,1.6-3.6,3.6-3.6h36.2c2,0,3.6,1.6,3.6,3.6l0,0
		C558.9,1039.4,557.3,1041,555.3,1041z"/>
	<rect x="513.6" y="1034.5" class="st10" width="47.2" height="0.9"/>
	<rect x="513.6" y="1036.1" class="st10" width="47.2" height="0.9"/>
	<rect x="513.6" y="1037.8" class="st10" width="47.2" height="0.9"/>
	<rect x="513.6" y="1039.4" class="st10" width="47.2" height="0.9"/>
</g>
<g>
	<rect x="396" y="1245.3" class="st15" width="2.9" height="14.2"/>
	<rect x="392.8" y="1246.9" class="st34" width="2" height="14.2"/>
	<path class="st42" d="M334.8,1254.8h-6.4v-6.1c0-1.7,1.3-3,3-3h0.4c1.7,0,3,1.3,3,3V1254.8z"/>
	<path class="st43" d="M394.8,1269.6h-4.4v-18.4h9.4v13.4C399.8,1267.3,397.5,1269.6,394.8,1269.6z"/>
	<path class="st43" d="M337,1269.6h-4.4c-2.8,0-5-2.2-5-5v-13.4h9.4V1269.6z"/>
	<path class="st43" d="M371.6,1280.3h-15.5c-11,0-20-9-20-20v-35.8h55.5v35.8C391.6,1271.3,382.7,1280.3,371.6,1280.3z"/>
	<path class="st44" d="M372.5,1240.7h-17.1c-11,0-20-9-20-20v-5.7h57.1v5.7C392.5,1231.8,383.5,1240.7,372.5,1240.7z"/>
	<path class="st15" d="M389.9,1217.9H338c-5.1,0-9.2-4.1-9.2-9.2l0,0c0-5.1,4.1-9.2,9.2-9.2h51.9c5.1,0,9.2,4.1,9.2,9.2l0,0
		C399.1,1213.8,395,1217.9,389.9,1217.9z"/>
	<rect x="347.1" y="1199.5" class="st34" width="5.3" height="18.4"/>
	<rect x="375.2" y="1199.5" class="st34" width="5.3" height="18.4"/>
	<rect x="352.4" y="1232.6" class="st34" width="4.1" height="14.2"/>
	<rect x="371.1" y="1232.6" class="st34" width="4.1" height="14.2"/>
</g>
<g>
	<g>
		<path class="st45" d="M432.7,243.4c21.2,0.1,41.3,8,60.2,17.1c19,9.1,36.8,20.6,52.7,34.4c8.9,7.7,17,16.3,23.8,25.9
			c0.8,1.1,2.2,1.6,3.4,0.9c1.1-0.6,1.7-2.3,0.9-3.4c-12.5-17.7-29.1-32-46.9-44.1c-9-6.1-18.4-11.6-28.1-16.4
			c-9.7-4.8-19.7-9.3-30-12.8c-11.6-3.9-23.7-6.5-36-6.5C429.5,238.4,429.5,243.4,432.7,243.4L432.7,243.4z"/>
	</g>
</g>
<g>
	<g>
		<path class="st45" d="M289.2,240.7c-16.2,5-32.3,10.8-47.7,17.9c-15.5,7.2-30.2,15.9-43.6,26.6c-7.9,6.4-15.4,13.3-22.3,20.8
			c-2.2,2.4,1.3,5.9,3.5,3.5c11.8-12.7,25-23.8,39.7-33c14.2-8.8,29.4-15.9,45-21.9c8.8-3.3,17.7-6.3,26.7-9.1
			C293.6,244.6,292.3,239.8,289.2,240.7L289.2,240.7z"/>
	</g>
</g>
<g>
	<g>
		<path class="st45" d="M366,251.4c-3.3,20.4-5,41.1-5,61.7c0,3.2,5,3.2,5,0c0-20.2,1.6-40.4,4.8-60.4c0.2-1.3-0.3-2.7-1.7-3.1
			C367.9,249.3,366.3,250,366,251.4L366,251.4z"/>
	</g>
</g>
<g>
	<g>
		<path class="st45" d="M154.5,489.7c4.9,14.5,12.6,27.9,22.4,39.6c9.7,11.6,21.6,21.4,34.7,28.8c8.7,4.9,18.1,8.7,27.8,11.3
			c3.1,0.8,4.4-4,1.3-4.8c-15.4-4.1-29.9-11.4-42.3-21.3c-11.5-9.1-21.3-20.2-28.9-32.8c-4.2-7-7.7-14.4-10.3-22.2
			C158.3,485.3,153.5,486.6,154.5,489.7L154.5,489.7z"/>
	</g>
</g>
<g>
	<g>
		<path class="st45" d="M357.7,497.3c-0.1,17.6-0.2,35.1-0.3,52.7c0,3.2,5,3.2,5,0c0.1-17.6,0.2-35.1,0.3-52.7
			C362.7,494,357.7,494,357.7,497.3L357.7,497.3z"/>
	</g>
</g>
<g>
	<g>
		<path class="st45" d="M496.9,569.4c15.3-2.6,27.8-12.9,38.3-23.7c10.4-10.8,20.6-22.2,26.9-35.9c3.8-8.1,6.4-16.7,7.9-25.6
			c0.2-1.3-0.4-2.7-1.7-3.1c-1.2-0.3-2.8,0.4-3.1,1.7c-2.5,14.5-8,28.2-16.7,40.1c-4.4,6-9.5,11.5-14.6,16.9
			c-5.1,5.5-10.6,10.8-16.7,15.1c-6.5,4.7-13.7,8.2-21.6,9.5c-1.3,0.2-2.1,1.9-1.7,3.1C494.2,569,495.6,569.6,496.9,569.4
			L496.9,569.4z"/>
	</g>
</g>
<g>
	<g>
		<path class="st45" d="M374.6,890.6c-5.9,18.8-14.9,36.9-28.1,51.7c-13.5,15.1-31,25.4-49.5,33.2c-10.6,4.5-21.6,8.2-32.5,12
			c-1.3,0.4-2.1,1.7-1.7,3.1c0.3,1.2,1.8,2.2,3.1,1.7c19.8-6.8,39.9-13.6,57.8-24.6c8.8-5.4,17.1-11.9,24.2-19.4
			c7-7.4,13-15.8,18.1-24.7c5.7-10,10.1-20.7,13.6-31.7C380.4,888.9,375.5,887.5,374.6,890.6L374.6,890.6z"/>
	</g>
</g>
<g>
	<g>
		<path class="st45" d="M290.3,1035.4c19.8-0.7,39.6-1.2,59.4-1.4c19.8-0.2,39.6-0.2,59.4,0.1c11.1,0.2,22.3,0.4,33.4,0.7
			c3.2,0.1,3.2-4.9,0-5c-19.8-0.6-39.6-0.9-59.4-1c-19.8-0.1-39.6,0.1-59.4,0.6c-11.1,0.2-22.3,0.6-33.4,1
			C287.1,1030.5,287.1,1035.5,290.3,1035.4L290.3,1035.4z"/>
	</g>
</g>
<g>
	<g>
		<path class="st45" d="M356.7,1374.2c0.4,12.2,0.4,24.5,0,36.7c-0.1,3.2,4.9,3.2,5,0c0.4-12.2,0.4-24.5,0-36.7
			C361.5,1371,356.5,1371,356.7,1374.2L356.7,1374.2z"/>
	</g>
</g>
<g>
	<g>
		<path class="st45" d="M428.6,1091.4c-15.2,1.1-29,8.4-39.4,19.5c-10.5,11.1-17.7,25.2-21.9,39.9c-2.3,8.2-3.7,16.6-3.9,25.1
			c-0.1,3.2,4.9,3.2,5,0c0.4-14.2,4.1-28.5,10.5-41.3c6.3-12.6,15.4-24.1,27.6-31.2c6.7-3.9,14.3-6.3,22.1-6.9
			c1.3-0.1,2.5-1.1,2.5-2.5C431.1,1092.6,430,1091.3,428.6,1091.4L428.6,1091.4z"/>
	</g>
</g>
<polygon class="st46" points="442.5,1024.3 442.5,1038.5 454.4,1031.4 "/>
<polygon class="st46" points="271.7,995.6 264.2,983.5 257.9,995.8 "/>
<polygon class="st46" points="373.5,1173.4 359.2,1173.5 366.5,1185.3 "/>
<polygon class="st46" points="366.4,1408.3 352.1,1408.6 359.4,1420.3 "/>
<polygon class="st46" points="503.1,571.6 496.2,559.1 489.3,571.1 "/>
<polygon class="st46" points="367,547 352.8,547.5 360.3,559.1 "/>
<polygon class="st46" points="238.6,558.7 233.7,572 247.2,569.5 "/>
<polygon class="st46" points="370.7,307.8 356.4,308.1 363.8,319.8 "/>
<polygon class="st46" points="576.4,313.3 562.9,317.7 573.3,326.8 "/>
<polygon class="st46" points="184.8,307.8 170.8,305.1 175.6,318.1 "/>
<g>
	<path class="st47" d="M412.4,1445.7l-14.2,0.1c-2.4,0-5.5,1.3-7,3l-33.8,38.4c-4.7,5.4-4.7,9.8,0.5,9.3l29.5-2.6
		c4.6-0.4,10.2-5,12.3-9.8l15.6-35.6C416,1446.9,414.7,1445.7,412.4,1445.7z"/>
	<path class="st48" d="M451.2,1506.4c-52.7,0-105.4,0-158,0c-1.1,0-3.9,0.2-7.5-0.4c-9.9-1.7-17-7.7-30.5-23
		c-13-14.8-23.8-27.2-21.2-30.5c0.6-0.7,3-0.6,7.9-0.4c6,0.2,9,0.3,12.4,1.8c1.9,0.8,2,1.2,7.5,4.9c0.6,0.4,5.7,3.7,8.4,5.3
		c5.9,3.4,11.2,4.2,20.3,5.6c8.6,1.3,15.2,1.6,15.5,1.6c32.1,0.3,140.2-0.1,145.2,0c1,0,4.6,0.1,9.3,1.2c13.6,3.1,29,13,27.8,20.7
		C487.2,1500.2,472,1506.9,451.2,1506.4z"/>
	<path class="st49" d="M364.3,1529.4"/>
	<path class="st47" d="M327,1540.7h-20c-3.3,0-4.4-1.6-2.4-3.6l37.7-37.8c4.2-4.2,12-7.9,17.2-7.9h31c5.1,0,4.4,3.6-1.3,7.9
		l-51.1,37.8C335.2,1539.1,330.4,1540.7,327,1540.7z"/>
	<path class="st47" d="M236.8,1481h-5.7c-0.9,0-1.3-0.6-0.7-1.4l10.7-14.8c1.2-1.7,3.4-3.1,4.9-3.1h8.8c1.5,0,1.3,1.4-0.4,3.1
		l-14.6,14.8C239.1,1480.4,237.7,1481,236.8,1481z"/>
	<path class="st48" d="M235.4,1445.9"/>
</g>
<text transform="matrix(0.9247 0 0 1 139.8976 1108.6683)"><tspan x="0" y="0" class="st6 st7">Undersøg dine muligheder </tspan><tspan x="0" y="10.4" class="st6 st7">for overnatning. </tspan><tspan x="0" y="20.8" class="st6 st7">Book evt. den første nat </tspan><tspan x="0" y="31.2" class="st6 st7">hjemmefra.</tspan></text>
<text transform="matrix(0.9247 0 0 1 484.326 1108.6682)"><tspan x="0" y="0" class="st6 st7">Tænk over din rute. </tspan><tspan x="0" y="10.4" class="st6 st7">Undersøg hvordan du </tspan><tspan x="0" y="20.8" class="st6 st7">lettest kommer rundt </tspan><tspan x="0" y="31.2" class="st6 st7">i landet.</tspan></text>
<text transform="matrix(0.9247 0 0 1 310.7372 1317.319)"><tspan x="0" y="0" class="st6 st7">Læg alt hvad du regner </tspan><tspan x="0" y="10.4" class="st6 st7">med at have med ud på </tspan><tspan x="0" y="20.8" class="st6 st7">gulvet. Fjern minimum </tspan><tspan x="0" y="31.2" class="st6 st7">fem ting.</tspan></text>
</svg>
