<?xml version="1.0" encoding="utf-8"?>
<!-- Generator: Adobe Illustrator 24.0.3, SVG Export Plug-In . SVG Version: 6.00 Build 0)  -->
<svg version="1.1" id="Baggrundsfarve" xmlns="http://www.w3.org/2000/svg" xmlns:xlink="http://www.w3.org/1999/xlink" x="0px"
	 y="0px" viewBox="0 0 719.2 2632.7" style="enable-background:new 0 0 719.2 2632.7;" xml:space="preserve">
<style type="text/css">
	.st0{fill:#DD9B38;stroke:#231F20;stroke-width:0.25;stroke-miterlimit:10;}
	.st1{fill:#58595B;stroke:#231F20;stroke-width:0.25;stroke-miterlimit:10;}
	.st2{fill:#FDC880;stroke:#231F20;stroke-width:0.25;stroke-miterlimit:10;}
	.st3{fill:#FFFFFF;stroke:#231F20;stroke-miterlimit:10;}
	.st4{fill:#231F20;}
	.st5{font-family:'CourierNewPS-BoldMT';}
	.st6{font-size:28px;}
	.st7{font-family:'CourierNewPSMT';}
	.st8{font-size:18px;}
	.st9{clip-path:url(#SVGID_2_);fill:#29B6DC;}
	.st10{clip-path:url(#SVGID_2_);}
	.st11{fill:#578327;}
	.st12{fill:#231F20;stroke:#231F20;stroke-width:0.5;stroke-miterlimit:10;}
	.st13{fill:#E6E7E8;}
	.st14{font-family:'MyriadPro-Regular';}
	.st15{font-size:46.8041px;}
	.st16{fill:#DD9B38;}
	.st17{fill:#1D170D;}
	.st18{font-size:39.6787px;}
	.st19{fill:#183F1D;}
	.st20{fill:#D0D2D3;stroke:#D0D2D3;stroke-width:0.25;stroke-miterlimit:10;}
	.st21{fill:#E6E7E8;stroke:#D0D2D3;stroke-width:0.25;stroke-miterlimit:10;}
	.st22{font-size:24.1406px;}
	.st23{fill:#231F20;stroke:#BBBDBF;stroke-width:0.5;stroke-miterlimit:10;}
	.st24{fill:#D0D2D3;}
	.st25{fill:#E6E7E8;stroke:#A6A8AB;stroke-width:0.25;stroke-miterlimit:10;}
	.st26{fill:#29B6DC;}
	.st27{fill:#BE1E2D;}
	.st28{fill:#58595B;}
	.st29{fill:#FFFFFF;stroke:#D0D2D3;stroke-width:0.25;stroke-miterlimit:10;}
	.st30{fill:#29B6DC;stroke:#231F20;stroke-miterlimit:10;}
	.st31{fill:#741015;stroke:#D0D2D3;stroke-miterlimit:10;}
	.st32{font-size:12.3105px;}
	.st33{fill:#FFFFFF;}
	.st34{font-size:17px;}
	.st35{fill:#775312;}
	.st36{font-size:5.9064px;}
	.st37{font-size:6.8908px;}
	.st38{font-size:10.3362px;}
	.st39{font-size:8.8596px;}
	.st40{font-size:36px;}
	.st41{fill:#100D0A;}
	.st42{fill:#FDC880;}
	.st43{fill:#855E19;}
	.st44{fill:#578327;stroke:#D0D2D3;stroke-miterlimit:10;}
	.st45{fill:#578327;stroke:#D0D2D3;stroke-width:0.75;stroke-miterlimit:10;}
	.st46{fill:#808184;}
	.st47{fill:#808184;stroke:#808184;stroke-miterlimit:10;}
	.st48{fill:#E5E5E4;}
	.st49{fill:#CBCBCA;}
	.st50{fill:#979797;}
</style>
<ellipse class="st0" cx="360.2" cy="119.9" rx="33.1" ry="35.2"/>
<ellipse class="st1" cx="360.2" cy="158" rx="10.4" ry="1.4"/>
<ellipse class="st1" cx="360.2" cy="160.9" rx="10.4" ry="1.4"/>
<ellipse class="st1" cx="360.2" cy="163.7" rx="10.4" ry="1.4"/>
<ellipse class="st1" cx="360.2" cy="166.6" rx="10" ry="1.4"/>
<ellipse class="st1" cx="360.2" cy="169.4" rx="8.5" ry="1.4"/>
<ellipse class="st1" cx="360.2" cy="172.1" rx="6.2" ry="1.2"/>
<ellipse class="st2" cx="360.2" cy="136.8" rx="3.9" ry="16.9"/>
<ellipse class="st1" cx="360.2" cy="155.2" rx="10.4" ry="1.4"/>
<line class="st3" x1="402" y1="99.5" x2="421.1" y2="92"/>
<line class="st3" x1="393.6" y1="85.1" x2="424" y2="54.2"/>
<line class="st3" x1="379.1" y1="75.5" x2="388.5" y2="57.2"/>
<line class="st3" x1="362.1" y1="71.6" x2="362.1" y2="32.8"/>
<line class="st3" x1="344.9" y1="74.1" x2="338.2" y2="54.7"/>
<line class="st3" x1="329.7" y1="82.5" x2="303.5" y2="50.9"/>
<line class="st3" x1="318.4" y1="95.7" x2="300.4" y2="85.9"/>
<text transform="matrix(1 0 0 1 137.3926 210.4462)" class="st4 st5 st6">Det hele starter med en idé! </text>
<text transform="matrix(0.9247 0 0 1 248.29 244.0047)"><tspan x="0" y="0" class="st4 st7 st8">Brug tid på at overveje </tspan><tspan x="0" y="24" class="st4 st7 st8">hvad dine drømme er og </tspan><tspan x="0" y="48" class="st4 st7 st8">hvad netop du har lyst </tspan><tspan x="0" y="72" class="st4 st7 st8">til at opleve.</tspan></text>
<g>
	<defs>
		<ellipse id="SVGID_1_" cx="132.4" cy="478.2" rx="59.2" ry="58.1"/>
	</defs>
	<clipPath id="SVGID_2_">
		<use xlink:href="#SVGID_1_"  style="overflow:visible;"/>
	</clipPath>
	<rect x="-8.8" y="394" class="st9" width="323.5" height="189.9"/>
	<g class="st10">
		<polygon class="st11" points="82.4,483.3 82.4,486.6 80,490 79,492.9 79,496.4 80.7,501 83.6,503.9 86.8,507.4 89.7,509.1 
			90.3,512.6 90.3,517.2 90.7,521 91.3,525.9 91.9,531.4 93.7,534.9 96.7,543 98.8,544.3 100.1,544.3 101.6,545.7 104.5,545.7 
			101.3,541.8 100.9,539.6 101.1,537.8 100.9,535.2 101.5,531.5 104.5,529.2 108.4,522.3 110.7,518.8 110.7,516 116.3,513.3 
			118.1,505.8 120,501.1 121.4,497.5 119,494.7 114,492.9 108.9,491.2 107.5,489.6 106.5,486.5 103.5,484.3 100.7,483.3 98,481.8 
			96.9,479.7 93.3,479.7 91.1,478.8 89.5,478.2 87.7,478.2 83.8,480.8 		"/>
		<path class="st11" d="M79,423.4l-6.8-1.4l-7.1,0.7l-14.1-1.9l-6.4,2.7v2.4h-5l2.3,1.4l-6.4,2.7v3.3l-2.2,1.2l10.1-2.9l4.4-1
			l4.6,0.6l2.3,3.3l-0.2,3.3l-0.6,5.3l-3.5,5.9l-0.8,5.5c0,0,2.3,2.4,2.3,1.6s1.2,9.4,1.2,9.4l1.9-5.7l2.7,4.7l0.8,4.5l4.8,5.5h3.1
			l2.9,1.4l6.4,4.1l3.5,2.7l1.7-1.4l-3.3-3.9l-1.2-3.1l-3.1-4.5l-1.2-4.7l0.8-4.3l4.2-0.2l4,1.8l1.5,2.7l1.2-5.1l1.9-3.5l2.7-2
			l3.5-4.9l4.8-2.2l3.9-2.7l3.2,1l-1.7-3.9l7.3-3.1l2.5,6.1v-9l-3.5-4.9l-7.7-2.7l-4.3,4.1l-4.8,1l-4.8-0.8l2.3-3.7l6-3.1L93,422
			l-8.5,2.4L79,423.4z"/>
		<path class="st11" d="M147.5,454.8h6.2l3.7-1.8h5l1,3.3l3.5,1.6l3.5,1.6l1.3-3.3l7.9,3.3h2.7l2.7,8.2l6.4,10.6l6.2,0.5v4.2
			l-2.5,3.9l-4.8,4.9l-2.1,4.5l1.5,5.5l-0.8,2.7c0,0,0,2.7-1.5,3.9c-1.5,1.2-2.3,2.4-3.1,2.7c-0.8,0.2-0.2,3.1-0.8,4.7
			c-0.6,1.6,0.8-0.4-0.6,1.6c-1.5,2-1.9,2.2-3.1,3.5s-0.8,1.4-2.1,2.4s0,1.2-2.5,1.4s-0.4,0.4-2.5,0.2s-2.7-0.4-3.5-1.2
			s-1.5-3.3-1.5-3.3s-0.2-2.7-0.6-3.9c-0.4-1.2-0.6-4.5-0.6-4.5s-0.6-4.7-0.6-5.5c0-0.8,0-4.1,0-4.1c0.8-2.4,1.5-4.5,1.5-4.5
			c-1.2-3.1-1.2-3.7-2.9-5.1c-1.7-1.4-4-5.5-4-5.5c-5.2-1.4-3.3-1.6-7.1-1.2c-3.7,0.4-3.7,0.4-3.7,0.4s-0.2-0.2-3.5-2.2
			s-6.2-4-6.4-6c-0.2-2,0.4-4.4,0-6.1c-0.4-1.6-0.5-4.9,0-6.7c0.5-1.8,3.8-5.3,3.8-5.3s0.6-1.2,0.8-1.8s1.7-5.3,1.7-5.3L147.5,454.8
			z"/>
		<path class="st11" d="M152.1,433.7v4.7l2.4,6.1l-5.8,2.8l0.2,5.6l7.7,1.8c-0.2-4.6-0.2-4.6-0.2-4.6l2.9-2.4l7.2-1.4l-1.2,6.6
			l6.2-6.1c0,0,0.6,0.2,1.9,4.8l1.3,4.6l6.2-3.3c1.7,6.5,4.4,6.5,4.4,6.5s-1.8,9.1,2.7,8.2s2.6-3.3,4.5-1c1.9,2.4,0.5,0,1.9,2.4
			c1.4,2.4-1,1.4,1.4,2.4s1-0.9,4.8,0s3.8,0.9,3.8,0.9s-1.4-0.5,0-2.4c1.4-1.9-6.3-7.1-6.3-7.1s0.1-4.2,2.4-0.9
			c2.4,3.3,6.7,3.8,9.1,4.2s-1-1.9,2.4,0.5c3.4,2.4,3.4,2.4,3.4,2.4s0.5,0.5,2.4,3.3c1.9,2.8,1,0.9,3.4,5.9c2.4,5,2.4,5,2.4,5
			s3.8,5.3,4.8-0.7s1-6,1-6v-3.3c0,0,3.4-2.8,4.3-1.9c1,0.9,1,0.9,1,0.9s-2.9-0.5,0,0s0-0.9,2.9,0.5c2.9,1.4,0-1.9,2.9,1.4
			s2.9,3.3,2.9,3.3s1-0.5,2.4,1.2c1.4,1.6,1.4,1.6,1.4,1.6l2.9,2.2c2.9-4.5,4.8-2.2,2.9-4.5c-1.9-2.4-1.9-2.4-1.9-2.4l-1.9-5.2
			l4.6-3.3c5.5-0.5,7.9-1.9,7.9-1.9l-1.9-5.8l-2.9-4.2l6.7-3.7c0,0,3.4-4.3,3.4-6.2c0-1.9,0-5.2,0-5.2l-2.9-4.7c0,0-2.9-4.2-1-4.7
			s-1.9-0.9,1.9-0.5c3.8,0.5,1-0.5,3.8,0.5s-0.5-0.5,2.9,0.9c3.4,1.4,0,2.4,3.4,1.4s3.8-1.8,4.8-3s1-1.2,1-1.2s1.4-1.9,0-3.3
			c-1.4-1.4-2.4-2.4-4.8-2.4c-2.4,0-2.4-2.7-6.7-2.6c-4.3,0.2-5.3,0.7-7.2,0c-1.9-0.7-2.9,1.7-6.7,0c-3.8-1.7-5.3-1.7-7.2-2.2
			c-1.9-0.5-1.9-0.5-1.9-0.5s-3.8,0.5-5.8,0c-1.9-0.5-2.4,1.4-5.3,0c-2.9-1.4-4.3-2.4-5.8-2.4c-1.4,0-4.3,0.9-6.3,0
			c-1.9-0.9,1-1.4-1.9-0.9c-2.9,0.5-0.3-2.3-6.2-0.2c-5.9,2.1-6.3,1.1-9.2,3c-2.9,1.9-2.9,1.9-2.9,1.9s2-0.9-2.4,1.2
			c-4.4,2.1-1.5,2.1-4.4,2.1s-3.4-2.3-5.3-2.1c-1.9,0.2-2.4,0.8-4.3,0c-1.9-0.8,1.4-0.8-1.9-0.8s5.3-2.4-3.4,0
			c-8.7,2.4-8.7,2.4-8.7,2.4s-1.9-4.2-4.8-1.6c-2.9,2.6-1.4,0.2-2.9,2.6c-1.4,2.4,0.5-1.4-1.4,2.4c-1.9,3.8,0,0-1.9,3.8
			c-1.9,3.8-1.9,3.8-1.9,3.8L152.1,433.7z"/>
	</g>
</g>
<g>
	<path class="st11" d="M645.3,519.6H527.9c-0.9,0-1.6-0.7-1.6-1.6v-72.7c0-0.9,0.7-1.6,1.6-1.6h117.4c0.9,0,1.6,0.7,1.6,1.6V518
		C646.9,518.9,646.2,519.6,645.3,519.6z"/>
	
		<rect x="536.3" y="434.7" transform="matrix(-1 -1.224647e-16 1.224647e-16 -1 1076.9039 883.6089)" class="st12" width="4.2" height="14.1"/>
	
		<rect x="548.4" y="434.7" transform="matrix(-1 -1.224647e-16 1.224647e-16 -1 1100.9657 883.6089)" class="st12" width="4.2" height="14.1"/>
	
		<rect x="560.4" y="434.7" transform="matrix(-1 -1.224647e-16 1.224647e-16 -1 1125.0273 883.6089)" class="st12" width="4.2" height="14.1"/>
	
		<rect x="572.4" y="434.7" transform="matrix(-1 -1.224647e-16 1.224647e-16 -1 1149.0891 883.6089)" class="st12" width="4.2" height="14.1"/>
	
		<rect x="584.5" y="434.7" transform="matrix(-1 -1.224647e-16 1.224647e-16 -1 1173.1509 883.6089)" class="st12" width="4.2" height="14.1"/>
	
		<rect x="596.5" y="434.7" transform="matrix(-1 -1.224647e-16 1.224647e-16 -1 1197.2126 883.6089)" class="st12" width="4.2" height="14.1"/>
	
		<rect x="608.5" y="434.7" transform="matrix(-1 -1.224647e-16 1.224647e-16 -1 1221.2743 883.6089)" class="st12" width="4.2" height="14.1"/>
	
		<rect x="620.6" y="434.7" transform="matrix(-1 -1.224647e-16 1.224647e-16 -1 1245.3361 883.6089)" class="st12" width="4.2" height="14.1"/>
	
		<rect x="632.6" y="434.7" transform="matrix(-1 -1.224647e-16 1.224647e-16 -1 1269.3978 883.6089)" class="st12" width="4.2" height="14.1"/>
	<text transform="matrix(1.0303 0 0 1 536.9492 498.1498)" class="st13 st14 st15">2020</text>
</g>
<g>
	<path class="st16" d="M374,575.6c-1.2,0.5-2.6,0.8-4.2,0.8c-3.5,0-6-1.4-7.6-3.5c-1.6,2.1-4.2,3.5-7.6,3.5c-3,0-5.3-1.1-6.9-2.7
		c-0.9,3.8-3.7,7-8.6,7.4c-0.1,0.8-0.1,1.7-0.1,2.6c0,12.9,9.5,23.4,21.3,23.4s21.3-10.5,21.3-23.4c0-0.2,0-0.4,0-0.6
		C377.2,582.3,374.7,579.1,374,575.6z"/>
	<path class="st16" d="M378.8,675.8h-37.3c-14.4,0-24.4-17.1-19.3-33.1l8.3-25.7c3-9.5,10.7-15.7,19.3-15.7h20.8
		c8.6,0,16.2,6.3,19.3,15.7l8.3,25.7C403.2,658.7,393.3,675.8,378.8,675.8z"/>
	<rect x="345.1" y="600.2" class="st17" width="30.2" height="2.2"/>
	<text transform="matrix(1.1185 0 0 1 349.3842 646.9086)" class="st4 st14 st18">$</text>
</g>
<text transform="matrix(1 0 0 1 11.1948 562.2193)" class="st4 st5 st6">Hvor skal du hen?</text>
<text transform="matrix(0.9247 0 0 1 46.0773 595.5579)"><tspan x="0" y="0" class="st4 st7 st8">Undersøg hvilke </tspan><tspan x="0" y="24" class="st4 st7 st8">destinationer der </tspan><tspan x="0" y="48" class="st4 st7 st8">bedst opfylder dine </tspan><tspan x="0" y="72" class="st4 st7 st8">rejsedrømme. </tspan></text>
<text transform="matrix(1 0 0 1 476.6384 551.3765)" class="st4 st5 st6">Hvor lang tid?</text>
<text transform="matrix(0.9247 0 0 1 480.1591 591.7166)"><tspan x="0" y="0" class="st4 st7 st8">Planlæg din rejse så du </tspan><tspan x="0" y="24" class="st4 st7 st8">får set hvad du vil men </tspan><tspan x="0" y="48" class="st4 st7 st8">også har frihed. </tspan></text>
<text transform="matrix(1 0 0 1 180.6095 716.0287)" class="st4 st5 st6">Hvor meget må det koste?</text>
<text transform="matrix(0.9247 0 0 1 248.2902 774.5803)"><tspan x="0" y="0" class="st4 st7 st8">Læg dit budget ud fra </tspan><tspan x="0" y="24" class="st4 st7 st8">destination, oplevelser </tspan><tspan x="0" y="48" class="st4 st7 st8">og rejsetid. Budget hænger </tspan><tspan x="0" y="72" class="st4 st7 st8">uløseligt sammen med din </tspan><tspan x="0" y="96" class="st4 st7 st8">destination og tiden. </tspan></text>
<rect x="-0.2" y="997.9" class="st19" width="719.2" height="279.7"/>
<rect x="192.2" y="978.9" class="st16" width="321.4" height="51.9"/>
<text transform="matrix(1 0 0 1 223.074 1009.8359)" class="st4 st5 st8">Få styr på det praktiske</text>
<g>
	<path class="st20" d="M149.4,1104.3l-64-19.7c-1.1-0.4-1.8-1.6-1.4-2.7l8.3-26.9c0.4-1.1,1.6-1.8,2.7-1.4l64,19.7
		c1.1,0.4,1.8,1.6,1.4,2.7l-8.3,26.9C151.8,1104,150.5,1104.7,149.4,1104.3z"/>
	<path class="st21" d="M155.7,1096.1H88.7c-1.2,0-2.2-1-2.2-2.2v-28.2c0-1.2,1-2.2,2.2-2.2h66.9c1.2,0,2.2,1,2.2,2.2v28.2
		C157.8,1095.2,156.9,1096.1,155.7,1096.1z"/>
	<g id="Fly_2_">
		<rect x="100.9" y="1075.8" class="st4" width="23.5" height="6.2"/>
		<ellipse class="st4" cx="124.4" cy="1078.9" rx="3.5" ry="3.1"/>
		<polygon class="st4" points="118.7,1076 113.6,1079.6 104.8,1067.9 108,1068.1 		"/>
		<polygon class="st4" points="103.9,1076.7 100.8,1078.9 95.5,1071.9 97.5,1072 		"/>
		<polygon class="st4" points="118.7,1081.9 113.6,1078.2 104.8,1089.9 108,1089.7 		"/>
		<polygon class="st4" points="103.9,1081.1 100.8,1078.9 95.5,1085.9 97.5,1085.8 		"/>
	</g>
	<rect x="144.5" y="1067.5" class="st4" width="1" height="4.1"/>
	<rect x="144.5" y="1072.7" class="st4" width="1" height="4.1"/>
	<rect x="144.5" y="1077.8" class="st4" width="1" height="4.1"/>
	<rect x="144.5" y="1082.9" class="st4" width="1" height="4.1"/>
	<rect x="144.5" y="1088.1" class="st4" width="1" height="4.1"/>
</g>
<g>
	<path class="st21" d="M398.6,1065.9c-5.8,0-8.7-4.2-8.9-8.6h-53.8c-0.1,4.3-3,8.4-8.5,8.6v27.4c5.8,0.2,8.7,4.7,8.5,9.1h53.8
		c-0.1-4.5,2.8-9.2,8.9-9.2c0.1,0,0.2,0,0.3,0v-27.4C398.7,1065.9,398.7,1065.9,398.6,1065.9z"/>
	<text transform="matrix(1 0 0 1 339.9767 1080.9937)" class="st4 st14 st22">VISA</text>
	<rect x="340" y="1085.7" class="st4" width="46.3" height="1.4"/>
	<rect x="341.6" y="1090.9" class="st4" width="9.4" height="1.4"/>
	<rect x="360.8" y="1090.9" class="st4" width="23.7" height="1.4"/>
</g>
<g>
	<polygon class="st23" points="541.7,1103.1 553.9,1094.5 554.5,1095.2 544.6,1102.3 	"/>
	<path class="st24" d="M552.8,1090.3L552.8,1090.3c0.8-0.5,1.8-0.4,2.4,0.4l3.2,4.6c0.5,0.8,0.4,1.8-0.4,2.4l0,0
		c-0.8,0.5-1.8,0.4-2.4-0.4l-3.2-4.6C551.8,1091.9,552,1090.9,552.8,1090.3z"/>
	<path class="st25" d="M551.6,1085.9l33.1-23.5c0.4-0.3,0.9-0.2,1.2,0.2l9.2,13c0.3,0.4,0.2,0.9-0.2,1.2l-33.1,23.5
		c-0.4,0.3-0.9,0.2-1.2-0.2l-9.2-13C551.1,1086.7,551.2,1086.1,551.6,1085.9z"/>
	<path class="st26" d="M551.6,1085.9l11-7.8c0.4-0.3,0.9-0.2,1.2,0.2l9.2,13c0.3,0.4,0.2,0.9-0.2,1.2l-11,7.8
		c-0.4,0.3-0.9,0.2-1.2-0.2l-9.2-13C551.1,1086.7,551.2,1086.1,551.6,1085.9z"/>
	
		<rect x="567.9" y="1075.8" transform="matrix(-0.8161 0.5779 -0.5779 -0.8161 1659.4933 1641.1768)" class="st23" width="1.4" height="17.7"/>
	
		<rect x="565.6" y="1072.3" transform="matrix(-0.8161 0.5779 -0.5779 -0.8161 1682.4746 1610.7268)" class="st23" width="38.6" height="1.4"/>
	
		<rect x="599.4" y="1053.5" transform="matrix(-0.8161 0.5779 -0.5779 -0.8161 1703.8422 1582.415)" class="st23" width="1.4" height="17.7"/>
	
		<rect x="587.5" y="1076.9" transform="matrix(-0.8161 0.5779 -0.5779 -0.8161 1691.5131 1619.8579)" class="st4" width="1" height="4.3"/>
	
		<rect x="579.3" y="1082.7" transform="matrix(-0.8161 0.5779 -0.5779 -0.8161 1679.9108 1635.2307)" class="st4" width="1" height="4.3"/>
	
		<rect x="583.4" y="1079.8" transform="matrix(-0.8161 0.5779 -0.5779 -0.8161 1685.7119 1627.5443)" class="st4" width="1" height="4.3"/>
</g>
<g id="DO">
	<rect x="83" y="1184.6" class="st11" width="5.1" height="22.9"/>
	<path class="st13" d="M112.6,1190H93.1c-2,0-3.7-1.7-3.7-3.7l0,0c0-2,1.7-3.7,3.7-3.7h19.5c2,0,3.7,1.7,3.7,3.7l0,0
		C116.3,1188.3,114.6,1190,112.6,1190z"/>
	<path class="st13" d="M112,1209.1H92.5c-2,0-3.7-1.7-3.7-3.7l0,0c0-2,1.7-3.7,3.7-3.7H112c2,0,3.7,1.7,3.7,3.7l0,0
		C115.7,1207.5,114,1209.1,112,1209.1z"/>
	<path class="st13" d="M112,1202.6H92.5c-2,0-3.7-1.7-3.7-3.7l0,0c0-2,1.7-3.7,3.7-3.7H112c2,0,3.7,1.7,3.7,3.7l0,0
		C115.7,1200.9,114,1202.6,112,1202.6z"/>
	<path class="st13" d="M112,1196H92.7c-2,0-3.7-1.7-3.7-3.7l0,0c0-2,1.7-3.7,3.7-3.7H112c2,0,3.7,1.7,3.7,3.7l0,0
		C115.7,1194.4,114,1196,112,1196z"/>
	<rect x="88.8" y="1184" class="st13" width="6.9" height="22.1"/>
	<path class="st13" d="M88.8,1184l10.5-11.1h6.9c0,0-0.7,12-3.7,12.7"/>
	<path class="st13" d="M103.2,1175.7L103.2,1175.7c1.6,0,2.9-1.3,2.9-2.9v-3.4c0-1.6-1.3-2.9-2.9-2.9h0c-1.6,0-2.9,1.3-2.9,2.9v3.4
		C100.3,1174.4,101.6,1175.7,103.2,1175.7z"/>
	<path class="st13" d="M99.2,1173c0.2-0.3,0.5-0.7,0.7-1.2c0.2-0.5,0.3-0.9,0.4-1.3c0.4,1.2,0.9,2.3,1.3,3.5L99.2,1173z"/>
</g>
<g id="DON_x27_T">
	
		<rect x="156.3" y="1184.2" transform="matrix(-1 -8.977409e-11 8.977409e-11 -1 317.6665 2391.3333)" class="st27" width="5.1" height="22.9"/>
	<path class="st13" d="M131.8,1201.7h19.5c2,0,3.7,1.7,3.7,3.7l0,0c0,2-1.7,3.7-3.7,3.7h-19.5c-2,0-3.7-1.7-3.7-3.7l0,0
		C128.1,1203.4,129.8,1201.7,131.8,1201.7z"/>
	<path class="st13" d="M132.4,1182.6H152c2,0,3.7,1.7,3.7,3.7l0,0c0,2-1.7,3.7-3.7,3.7h-19.5c-2,0-3.7-1.7-3.7-3.7l0,0
		C128.7,1184.2,130.4,1182.6,132.4,1182.6z"/>
	<path class="st13" d="M132.4,1189.1H152c2,0,3.7,1.7,3.7,3.7l0,0c0,2-1.7,3.7-3.7,3.7h-19.5c-2,0-3.7-1.7-3.7-3.7l0,0
		C128.7,1190.8,130.4,1189.1,132.4,1189.1z"/>
	<path class="st13" d="M132.4,1195.7h19.2c2,0,3.7,1.7,3.7,3.7l0,0c0,2-1.7,3.7-3.7,3.7h-19.2c-2,0-3.7-1.7-3.7-3.7l0,0
		C128.7,1197.3,130.4,1195.7,132.4,1195.7z"/>
	
		<rect x="148.8" y="1185.5" transform="matrix(-1 -8.975944e-11 8.975944e-11 -1 304.4514 2393.1794)" class="st13" width="6.9" height="22.1"/>
	<path class="st13" d="M155.7,1207.7l-10.5,11.1h-6.9c0,0,0.7-12,3.7-12.7"/>
	<path class="st13" d="M141.2,1216L141.2,1216c-1.6,0-2.9,1.3-2.9,2.9v3.4c0,1.6,1.3,2.9,2.9,2.9l0,0c1.6,0,2.9-1.3,2.9-2.9v-3.4
		C144.2,1217.3,142.8,1216,141.2,1216z"/>
	<path class="st13" d="M145.2,1218.7c-0.2,0.3-0.5,0.7-0.7,1.2c-0.2,0.5-0.3,0.9-0.4,1.3c-0.4-1.2-0.9-2.3-1.3-3.5L145.2,1218.7z"/>
</g>
<g>
	<path class="st21" d="M383.6,1224.6H341c-1.7,0-3.1-1.4-3.1-3.1v-50.7c0-1.7,1.4-3.1,3.1-3.1h42.6c1.7,0,3.1,1.4,3.1,3.1v50.7
		C386.7,1223.2,385.3,1224.6,383.6,1224.6z"/>
	<ellipse class="st4" cx="362.6" cy="1166.1" rx="4.9" ry="4.4"/>
	<ellipse class="st28" cx="362.7" cy="1166.1" rx="3.3" ry="2.9"/>
	<path class="st29" d="M381.8,1222.4H343c-1.7,0-3.1-1.4-3.1-3.1v-46.3c0-1.7,1.4-3.1,3.1-3.1h38.8c1.7,0,3.1,1.4,3.1,3.1v46.3
		C384.9,1221,383.5,1222.4,381.8,1222.4z"/>
	<path class="st4" d="M374.2,1171.1H351c-1.3,0-2.3-1-2.3-2.3l0,0c0-1.3,1-2.3,2.3-2.3h23.1c1.3,0,2.3,1,2.3,2.3l0,0
		C376.5,1170.1,375.4,1171.1,374.2,1171.1z"/>
	<rect x="346.6" y="1178.5" class="st4" width="32" height="1.1"/>
	<rect x="346.6" y="1185.9" class="st4" width="32" height="1.1"/>
	<rect x="346.5" y="1193.3" class="st4" width="32" height="1.1"/>
	<rect x="346.4" y="1200.7" class="st4" width="32" height="1.1"/>
	<rect x="346.3" y="1208.1" class="st4" width="32" height="1.1"/>
	<rect x="346.2" y="1215.5" class="st4" width="32" height="1.1"/>
	<path class="st30" d="M360.8,1198.9c-0.1,0-0.3,0-0.4-0.1c-0.1,0.1-0.2,0.2-0.3,0.3c-0.9,1.5-2.6,2.6-5,2.6c-1.6,0-2.9-0.5-3.9-1.3
		c-0.9-0.6-1.6-1.5-2.1-2.4c0,0,0,0-0.1,0c-0.9,1.8-2.6,3.1-5.3,3.1c-2.8,0-4.5-1.4-5.4-3.3c-0.1,0-0.3,0-0.4,0
		c-0.2,0.3-0.3,0.5-0.5,0.8c-0.7,2.1-2.6,3.8-5.6,3.8c-2.5,0-4.1-1.1-5.1-2.7c-0.1,0-0.1,0-0.2,0.1c-0.1,1-0.1,1.9-0.1,2.9
		c0,15.3,7.7,27.6,17.2,27.6s17.2-12.4,17.2-27.6C361,1201.4,360.9,1200.1,360.8,1198.9z"/>
	<g id="Fly_3_">
		<rect x="337.4" y="1210.2" class="st4" width="14.6" height="4.5"/>
		<ellipse class="st4" cx="351.9" cy="1212.5" rx="2.2" ry="2.2"/>
		<polygon class="st4" points="348.4,1210.3 345.3,1213 339.8,1204.5 341.8,1204.6 		"/>
		<polygon class="st4" points="339.3,1210.9 337.4,1212.5 334.1,1207.4 335.3,1207.4 		"/>
		<polygon class="st4" points="348.4,1214.6 345.3,1212 339.8,1220.5 341.8,1220.4 		"/>
		<polygon class="st4" points="339.3,1214.1 337.4,1212.5 334.1,1217.6 335.3,1217.5 		"/>
	</g>
</g>
<g>
	<path class="st31" d="M591.3,1226.2h-39.1v-56.8h39.1c1.7,0,3,1.3,3,3v50.8C594.3,1224.9,592.9,1226.2,591.3,1226.2z"/>
	<rect x="559.1" y="1201.8" class="st16" width="28.4" height="1.4"/>
	<text transform="matrix(0.9962 0 0 1 562.6455 1192.0806)" class="st16 st14 st32">PAS</text>
	<rect x="563.2" y="1211.4" class="st16" width="20" height="1.4"/>
	<rect x="560.6" y="1206.5" class="st16" width="25.3" height="1.4"/>
</g>
<text transform="matrix(1 0 0 1 66.9871 1118.8787)" class="st33 st5 st34">Flybilletter</text>
<text transform="matrix(1 0 0 1 334.0801 1118.879)" class="st33 st5 st34">Visum</text>
<text transform="matrix(1 0 0 1 53.9522 1245.5751)" class="st33 st5 st34">Do’s and Don’ts</text>
<text transform="matrix(1 0 0 1 288.1279 1245.575)" class="st33 st5 st34">Rejseforsikring</text>
<text transform="matrix(1 0 0 1 537.8217 1123.9269)" class="st33 st5 st34">Vacciner</text>
<text transform="matrix(1 0 0 1 555.5142 1247.1038)" class="st33 st5 st34">Pas</text>
<rect x="148.9" y="1478.5" class="st35" width="63.5" height="5.6"/>
<rect x="206.2" y="1478.5" class="st35" width="6.2" height="19.6"/>
<polygon class="st4" points="243.7,1446.3 176.3,1403.2 172.3,1408.5 239.8,1451.5 "/>
<polygon class="st4" points="113.5,1452.5 180.2,1408.4 176.1,1403.2 109.5,1447.3 "/>
<path class="st16" d="M212.4,1478.5h-52v-7.6c0-1.1,0.9-2,2-2h42.6c4.1,0,7.4,3.3,7.4,7.4V1478.5z"/>
<path class="st16" d="M160.1,1478.5h-9.3v-5c0-2,1.6-3.6,3.6-3.6h2.2c2,0,3.6,1.6,3.6,3.6V1478.5z"/>
<rect x="143.8" y="1456" class="st35" width="6.6" height="42.1"/>
<rect x="80.7" y="1481.5" transform="matrix(6.123234e-17 -1 1 6.123234e-17 -1366.3251 1603.5342)" class="st4" width="75.8" height="6.9"/>
<rect x="197" y="1480.3" transform="matrix(6.123234e-17 -1 1 6.123234e-17 -1248.7927 1718.6161)" class="st4" width="75.8" height="6.9"/>
<rect x="115" y="1518.4" transform="matrix(-1 -1.224647e-16 1.224647e-16 -1 353.2328 3043.188)" class="st4" width="123.2" height="6.4"/>
<text transform="matrix(1 0 0 1 163.0674 1456.3197)" class="st4 st14 st36">z</text>
<text transform="matrix(1 0 0 1 169.8281 1448.3705)" class="st4 st14 st37">z</text>
<text transform="matrix(1 0 0 1 183.8828 1432.6127)" class="st4 st14 st38">z</text>
<text transform="matrix(1 0 0 1 176.7578 1440.9974)" class="st4 st14 st39">z</text>
<text transform="matrix(1 0 0 1 57.1021 1552.5736)" class="st4 st5 st6">Book overnatning </text>
<text transform="matrix(1 0 0 1 406.4356 1552.5736)" class="st4 st5 st6">Undersøg transport</text>
<text transform="matrix(1 0 0 1 329.756 1960.0349)" class="st4 st5 st6">Pak</text>
<text transform="matrix(1 0 0 1 196.6289 2348.158)" class="st4 st5 st40">Flyv - God tur!</text>
<g>
	<path class="st41" d="M624.3,1521.1h-3.5c-3.9,0-7.1-3.2-7.1-7.1v-7.3c0-3.9,3.2-7.1,7.1-7.1h3.5c3.9,0,7.1,3.2,7.1,7.1v7.3
		C631.4,1517.9,628.2,1521.1,624.3,1521.1z"/>
	<path class="st41" d="M530,1520.1h-3.5c-3.9,0-7.1-3.2-7.1-7.1v-7.3c0-3.9,3.2-7.1,7.1-7.1h3.5c3.9,0,7.1,3.2,7.1,7.1v7.3
		C537.1,1516.9,534,1520.1,530,1520.1z"/>
	<path class="st16" d="M612.7,1473.3h-74.6c-6.5,0-10.8-6.1-9.7-13.2l3.1-18.8c1-5.9,6.3-10.6,11.9-10.6h63.8
		c5.6,0,10.9,4.6,11.9,10.6l3.1,18.8C623.6,1467.2,619.3,1473.3,612.7,1473.3z"/>
	<path class="st11" d="M617.8,1499.7h-85.6c-7,0-12.7-5.7-12.7-12.7v-12.2c0-7,5.7-12.7,12.7-12.7h85.6c7,0,12.7,5.7,12.7,12.7v12.2
		C630.5,1494,624.8,1499.7,617.8,1499.7z"/>
	<path class="st16" d="M630,1506H520.9c-2.9,0-5.2-2.3-5.2-5.2v-2.5c0-2.9,2.3-5.2,5.2-5.2H630c2.9,0,5.2,2.3,5.2,5.2v2.5
		C635.2,1503.6,632.9,1506,630,1506z"/>
	<path class="st42" d="M617,1459.5l-3.1-18.8c-0.5-3.2-3.5-6-6.5-6h-63.8c-3,0-6,2.7-6.5,6l-3.1,18.8c0,0,0,0,0,0L617,1459.5
		C617,1459.5,617,1459.5,617,1459.5z"/>
	<circle class="st33" cx="617.8" cy="1475.3" r="8.4"/>
	<circle class="st33" cx="533.9" cy="1475.3" r="8.4"/>
	<path class="st33" d="M599.2,1489.1h-46.8c-2,0-3.6-1.6-3.6-3.6v-1.8c0-2,1.6-3.6,3.6-3.6h46.8c2,0,3.6,1.6,3.6,3.6v1.8
		C602.9,1487.5,601.2,1489.1,599.2,1489.1z"/>
	<rect x="546.5" y="1480.9" class="st11" width="58.7" height="1.1"/>
	<rect x="546.5" y="1483" class="st11" width="58.7" height="1.1"/>
	<rect x="546.5" y="1485" class="st11" width="58.7" height="1.1"/>
	<rect x="546.5" y="1487.1" class="st11" width="58.7" height="1.1"/>
</g>
<g>
	<rect x="415.1" y="1853.4" class="st16" width="5" height="24.9"/>
	<rect x="409.6" y="1856.3" class="st35" width="3.5" height="24.9"/>
	<path class="st43" d="M308.4,1870.1h-11.2v-12.8c0-1.7,1.3-3,3-3h5.2c1.7,0,3,1.3,3,3V1870.1z"/>
	<path class="st44" d="M416.8,1895.9h-11.4v-32.1h16.4v27.1C421.8,1893.7,419.5,1895.9,416.8,1895.9z"/>
	<path class="st44" d="M312.1,1895.9h-11.4c-2.8,0-5-2.2-5-5v-27.1h16.4V1895.9z"/>
	<path class="st44" d="M387.6,1914.6h-57c-11,0-20-9-20-20v-77.4h97v77.4C407.6,1905.6,398.6,1914.6,387.6,1914.6z"/>
	<path class="st45" d="M389,1845.6h-59.6c-11,0-20-9-20-20v-24.9H409v24.9C409,1836.6,400.1,1845.6,389,1845.6z"/>
	<path class="st16" d="M411.4,1805.7H307.1c-5.1,0-9.2-4.1-9.2-9.2v-13.7c0-5.1,4.1-9.2,9.2-9.2h104.3c5.1,0,9.2,4.1,9.2,9.2v13.7
		C420.6,1801.6,416.5,1805.7,411.4,1805.7z"/>
	<rect x="329.9" y="1773.6" class="st35" width="9.2" height="32.1"/>
	<rect x="378.9" y="1773.6" class="st35" width="9.2" height="32.1"/>
	<rect x="339.1" y="1831.4" class="st35" width="7.1" height="24.9"/>
	<rect x="371.8" y="1831.4" class="st35" width="7.1" height="24.9"/>
</g>
<g>
	<g>
		<path class="st46" d="M223.4,315c-14.8,8-29.4,16.6-43,26.5c-13.7,10-26.6,21.2-37.6,34.2c-6.7,7.9-12.8,16.3-18.3,25.1
			c-1.7,2.7,2.6,5.3,4.3,2.5c9.2-14.8,20.2-28.3,33-40.2c12.1-11.3,25.6-21,39.7-29.7c8-5,16.2-9.6,24.5-14.1
			C228.7,317.8,226.2,313.5,223.4,315L223.4,315z"/>
	</g>
</g>
<g>
	<g>
		<path class="st46" d="M83.1,709.9c2.5,21.4,5.6,42.8,9.7,64c3.7,19.4,8.1,38.6,13.3,57.6c4.7,17,10.1,33.9,16.6,50.3
			c5.6,14.2,11.8,28.2,19.3,41.6c8.4,15.1,18.4,29.9,31.4,41.4c1.7,1.5,3.4,2.9,5.2,4.3c1.1,0.8,2.8,0.2,3.4-0.9
			c0.8-1.3,0.2-2.6-0.9-3.4c-13.8-10.6-24.1-25.3-32.7-40.2c-7.4-12.7-13.6-26-19.1-39.6c-6.4-15.9-11.9-32.2-16.6-48.7
			c-5.4-18.6-9.8-37.4-13.6-56.3c-4.1-20.5-7.4-41.2-10-62c-0.3-2.7-0.7-5.4-1-8c-0.2-1.3-1-2.5-2.5-2.5
			C84.3,707.4,82.9,708.5,83.1,709.9L83.1,709.9z"/>
	</g>
</g>
<g>
	<g>
		<path class="st46" d="M357.9,908.3c-0.1,17.6-0.2,35.1-0.3,52.7c0,3.2,5,3.2,5,0c0.1-17.6,0.2-35.1,0.3-52.7
			C363,905.1,358,905.1,357.9,908.3L357.9,908.3z"/>
	</g>
</g>
<g>
	<g>
		<path class="st46" d="M538.5,970.4c14.8-3.9,25.7-16.1,34.2-28.1c11.4-16.2,19.8-34.4,27.7-52.5c7.6-17.5,15-35.1,20.9-53.2
			c5.5-17.1,9.6-34.5,12.7-52.2c3.6-20.8,5.9-41.8,7-62.8c0.2-2.8,0.3-5.7,0.4-8.5c0.1-3.2-4.9-3.2-5,0c-0.9,21.1-2.8,42.2-6.1,63.1
			c-2.8,17.7-6.7,35.3-11.9,52.5c-5.2,17.2-12,33.9-19,50.5c-7.8,18.5-16,37-26.7,54c-4.4,6.9-9.2,13.6-15,19.5
			c-4.7,4.7-10.3,9.1-16.2,11.5c-1.4,0.6-2.9,1.1-4.4,1.4C534,966.4,535.4,971.2,538.5,970.4L538.5,970.4z"/>
	</g>
</g>
<g>
	<g>
		<path class="st46" d="M366.3,1296.4c-5.6,20.6-14.1,40.7-27,57.9c-6.3,8.4-13.7,15.9-22.1,22.2c-8.5,6.5-17.8,11.8-27.4,16.5
			c-10.7,5.2-21.8,9.6-32.9,13.9c-1.3,0.5-2.1,1.7-1.7,3.1c0.3,1.2,1.8,2.2,3.1,1.7c20.3-7.9,40.8-16.1,58.6-28.9
			c8.9-6.4,17-13.8,23.9-22.4c6.8-8.5,12.5-17.7,17.3-27.5c5.5-11.3,9.8-23.2,13.1-35.3C371.9,1294.6,367.1,1293.3,366.3,1296.4
			L366.3,1296.4z"/>
	</g>
</g>
<g>
	<g>
		<path class="st46" d="M279.1,1497.5c19.8-0.7,39.6-1.2,59.4-1.4c19.8-0.2,39.6-0.2,59.4,0.1c11.1,0.2,22.3,0.4,33.4,0.7
			c3.2,0.1,3.2-4.9,0-5c-19.8-0.6-39.6-0.9-59.4-1c-19.8-0.1-39.6,0.1-59.4,0.6c-11.1,0.2-22.3,0.6-33.4,1
			C275.9,1492.6,275.9,1497.6,279.1,1497.5L279.1,1497.5z"/>
	</g>
</g>
<g>
	<g>
		<path class="st46" d="M357.8,2141.7c0.4,12.2,0.4,24.5,0,36.7c-0.1,3.2,4.9,3.2,5,0c0.4-12.2,0.4-24.5,0-36.7
			C362.7,2138.5,357.7,2138.5,357.8,2141.7L357.8,2141.7z"/>
	</g>
</g>
<g>
	<g>
		<path class="st46" d="M421.4,1665.7c-15.2,1.1-29,8.4-39.4,19.5c-10.5,11.1-17.7,25.2-21.9,39.9c-2.3,8.2-3.7,16.6-3.9,25.1
			c-0.1,3.2,4.9,3.2,5,0c0.4-14.2,4.1-28.5,10.5-41.3c6.3-12.6,15.4-24.1,27.6-31.2c6.7-3.9,14.3-6.3,22.1-6.9
			c1.3-0.1,2.5-1.1,2.5-2.5C423.9,1666.9,422.8,1665.6,421.4,1665.7L421.4,1665.7z"/>
	</g>
</g>
<polygon class="st47" points="429.4,1487.9 429.4,1502.1 441.3,1495 "/>
<polygon class="st47" points="264.5,1415.2 257,1403.2 250.7,1415.5 "/>
<polygon class="st47" points="366.3,1747.7 352,1747.8 359.3,1759.6 "/>
<polygon class="st47" points="367.5,2175.8 353.3,2176.1 360.6,2187.8 "/>
<polygon class="st47" points="544.7,973.1 537.8,960.6 530.9,972.6 "/>
<polygon class="st47" points="366.7,955.9 352.5,956.4 360,968 "/>
<polygon class="st47" points="178.8,960.2 173.8,973.5 187.4,971 "/>
<g>
	<g>
		<g>
			<path class="st46" d="M488.1,322.9c16.8,7.4,31.8,18.4,45.8,30.1c14,11.7,26.9,25,37.7,39.9c6.1,8.5,11.5,17.5,15.7,27
				c0.5,1.2,2.3,1.5,3.4,0.9c1.3-0.7,1.4-2.2,0.9-3.4c-7.6-17.2-18.9-32.6-31.6-46.4c-12.6-13.7-27-26-42.2-36.7
				c-8.6-6-17.6-11.4-27.2-15.7c-1.2-0.5-2.7-0.4-3.4,0.9C486.5,320.5,486.8,322.3,488.1,322.9L488.1,322.9z"/>
		</g>
	</g>
	<polygon class="st47" points="595.5,413.5 581.4,415.2 589.9,426.1 	"/>
</g>
<polygon class="st47" points="132.4,402.1 118.1,402.1 125.3,414 "/>
<g>
	<path class="st48" d="M407.2,2201l-14.2,0.1c-2.4,0-5.5,1.3-7,3l-33.8,38.4c-4.7,5.4-4.7,9.8,0.5,9.3l29.5-2.6
		c4.6-0.4,10.2-5,12.3-9.8l15.6-35.6C410.8,2202.2,409.5,2201,407.2,2201z"/>
	<path class="st49" d="M446.1,2261.7c-52.7,0-105.4,0-158,0c-1.1,0-3.9,0.2-7.5-0.4c-9.9-1.7-17-7.7-30.5-23
		c-13-14.8-23.8-27.2-21.2-30.5c0.6-0.7,3-0.6,7.9-0.4c6,0.2,9,0.3,12.4,1.8c1.9,0.8,2,1.2,7.5,4.9c0.6,0.4,5.7,3.7,8.4,5.3
		c5.9,3.4,11.2,4.2,20.3,5.6c8.6,1.3,15.2,1.6,15.5,1.6c32.1,0.3,140.2-0.1,145.2,0c1,0,4.6,0.1,9.3,1.2c13.6,3.1,29,13,27.8,20.7
		C482.1,2255.5,466.9,2262.2,446.1,2261.7z"/>
	<path class="st50" d="M359.1,2284.6"/>
	<path class="st48" d="M321.9,2295.9h-20c-3.3,0-4.4-1.6-2.4-3.6l37.7-37.8c4.2-4.2,12-7.9,17.2-7.9h31c5.1,0,4.4,3.6-1.3,7.9
		l-51.1,37.8C330,2294.4,325.2,2295.9,321.9,2295.9z"/>
	<path class="st48" d="M231.6,2236.3h-5.7c-0.9,0-1.3-0.6-0.7-1.4l10.7-14.8c1.2-1.7,3.4-3.1,4.9-3.1h8.8c1.5,0,1.3,1.4-0.4,3.1
		l-14.6,14.8C233.9,2235.7,232.5,2236.3,231.6,2236.3z"/>
	<path class="st49" d="M230.2,2201.2"/>
</g>
<text transform="matrix(0.9247 0 0 1 85.579 1585.4904)"><tspan x="0" y="0" class="st4 st7 st8">Undersøg dine muligheder </tspan><tspan x="0" y="24" class="st4 st7 st8">for overnatning. </tspan><tspan x="0" y="48" class="st4 st7 st8">Book evt. den første nat </tspan><tspan x="0" y="72" class="st4 st7 st8">hjemmefra.</tspan></text>
<text transform="matrix(0.9247 0 0 1 473.4228 1589.5862)"><tspan x="0" y="0" class="st4 st7 st8">Tænk over din rute. </tspan><tspan x="0" y="24" class="st4 st7 st8">Undersøg hvordan du </tspan><tspan x="0" y="48" class="st4 st7 st8">lettest kommer rundt </tspan><tspan x="0" y="72" class="st4 st7 st8">i landet.</tspan></text>
<text transform="matrix(0.9247 0 0 1 268.0904 1988.2103)"><tspan x="0" y="0" class="st4 st7 st8">Læg alt hvad du regner </tspan><tspan x="0" y="24" class="st4 st7 st8">med at have med ud på </tspan><tspan x="0" y="48" class="st4 st7 st8">gulvet. Fjern minimum </tspan><tspan x="0" y="72" class="st4 st7 st8">fem ting.</tspan></text>
<g>
	<g>
		<path class="st46" d="M356.2,340.2c0,20.8-0.1,41.5-0.1,62.3c0,20.9-0.1,41.7-0.1,62.6c0,11.7,0,23.4-0.1,35.1c0,3.2,5,3.2,5,0
			c0-20.8,0.1-41.5,0.1-62.3c0-20.9,0.1-41.7,0.1-62.6c0-11.7,0-23.4,0.1-35.1C361.2,337,356.2,336.9,356.2,340.2L356.2,340.2z"/>
	</g>
</g>
<polygon class="st47" points="365.5,497.1 351.3,497.7 358.9,509.2 "/>
</svg>
