<svg xmlns="http://www.w3.org/2000/svg" viewBox="0 0 352 106"><defs><style>.cls-1{stroke:#000;}.cls-1,.cls-2{stroke-miterlimit:10;}.cls-2{font-size:31.14px;fill:#fff;stroke:#fff;font-family:CourierNewPS-BoldMT, Courier New;font-weight:700;letter-spacing:0.07em;}.cls-3{fill:#e6e6e6;}.cls-4{fill:#ccc;}</style></defs><title>Asset 8</title><g id="Layer_2" data-name="Layer 2"><g id="fly_v2" data-name="fly v2"><rect class="cls-1" x="84.96" y="40.07" width="266.54" height="48.37"/><text class="cls-2" transform="translate(133.47 72.98) scale(1.08 1)">Rejselyst</text><path class="cls-3" d="M21.39,62.49c10.25,6.79,15.78,8.82,21.69,9.11a32.12,32.12,0,0,0,9.5-1c34.59-8.53,99.82-33,119.65-38.87a58.49,58.49,0,0,0,9.91-3.92c6-3,16.81-8.52,16.51-14.49C198.33,6.58,184.07.91,172.36.11A46.87,46.87,0,0,0,153.6,2.69c-17.38,6.11-52,16.86-98.26,31.22-1.63.6-3.94,1.4-6.76,2.19a57.92,57.92,0,0,1-12,2.48c-8.5.57-9.4-2.93-17.48-2-2.35.26-4.8,1-9.7,2.45C3.61,40.72.7,41.59.2,42.69-1.82,47.12,11.86,56.17,21.39,62.49Z"/><path class="cls-4" d="M49.16,7.82l13.5-4.38,45.44,11.3-1.65.52L72.21,26Z"/><polygon class="cls-4" points="60.95 106 82.87 98.92 128.16 33.52 85.04 47.44 60.95 106"/></g></g></svg>